<mxfile host="app.diagrams.net" modified="2023-03-21T09:53:56.349Z" agent="5.0 (Windows NT 10.0; Win64; x64) AppleWebKit/537.36 (KHTML, like Gecko) Chrome/111.0.0.0 Safari/537.36" etag="0U3YVwvzPG8PVsXwJoXQ" version="21.0.6" type="github">
  <diagram name="第 1 页" id="aM8vnC7cXOHeMTetSTs6">
    <mxGraphModel dx="1434" dy="756" grid="1" gridSize="10" guides="1" tooltips="1" connect="1" arrows="1" fold="1" page="1" pageScale="1" pageWidth="827" pageHeight="1169" math="0" shadow="0">
      <root>
        <mxCell id="0" />
        <mxCell id="1" parent="0" />
        <mxCell id="Ba5T1_cV8EzTChJs61SM-7" style="edgeStyle=orthogonalEdgeStyle;rounded=0;orthogonalLoop=1;jettySize=auto;html=1;" parent="1" source="Ba5T1_cV8EzTChJs61SM-1" target="Ba5T1_cV8EzTChJs61SM-3" edge="1">
          <mxGeometry relative="1" as="geometry" />
        </mxCell>
        <mxCell id="Ba5T1_cV8EzTChJs61SM-1" value="开始质检" style="strokeWidth=2;html=1;shape=mxgraph.flowchart.start_2;whiteSpace=wrap;fillColor=#ffe6cc;strokeColor=#d79b00;" parent="1" vertex="1">
          <mxGeometry x="70" y="60" width="100" height="100" as="geometry" />
        </mxCell>
        <mxCell id="Ba5T1_cV8EzTChJs61SM-8" style="edgeStyle=orthogonalEdgeStyle;rounded=0;orthogonalLoop=1;jettySize=auto;html=1;exitX=1;exitY=0.5;exitDx=0;exitDy=0;" parent="1" source="Ba5T1_cV8EzTChJs61SM-3" target="Ba5T1_cV8EzTChJs61SM-5" edge="1">
          <mxGeometry relative="1" as="geometry" />
        </mxCell>
        <mxCell id="Ba5T1_cV8EzTChJs61SM-3" value="修改原标注单质检状态为质检中" style="rounded=0;whiteSpace=wrap;html=1;" parent="1" vertex="1">
          <mxGeometry x="220" y="80" width="120" height="60" as="geometry" />
        </mxCell>
        <mxCell id="Ba5T1_cV8EzTChJs61SM-9" style="edgeStyle=orthogonalEdgeStyle;rounded=0;orthogonalLoop=1;jettySize=auto;html=1;exitX=1;exitY=0.5;exitDx=0;exitDy=0;" parent="1" source="Ba5T1_cV8EzTChJs61SM-5" target="Ba5T1_cV8EzTChJs61SM-6" edge="1">
          <mxGeometry relative="1" as="geometry" />
        </mxCell>
        <mxCell id="Ba5T1_cV8EzTChJs61SM-5" value="保存质检单，质检人为当前用户" style="rounded=0;whiteSpace=wrap;html=1;" parent="1" vertex="1">
          <mxGeometry x="390" y="80" width="120" height="60" as="geometry" />
        </mxCell>
        <mxCell id="Ba5T1_cV8EzTChJs61SM-11" style="edgeStyle=orthogonalEdgeStyle;rounded=0;orthogonalLoop=1;jettySize=auto;html=1;exitX=1;exitY=0.5;exitDx=0;exitDy=0;entryX=0;entryY=0.5;entryDx=0;entryDy=0;" parent="1" source="Ba5T1_cV8EzTChJs61SM-6" target="Ba5T1_cV8EzTChJs61SM-10" edge="1">
          <mxGeometry relative="1" as="geometry" />
        </mxCell>
        <mxCell id="Ba5T1_cV8EzTChJs61SM-6" value="保存质检单单视频初检工作台" style="rounded=0;whiteSpace=wrap;html=1;" parent="1" vertex="1">
          <mxGeometry x="560" y="80" width="120" height="60" as="geometry" />
        </mxCell>
        <mxCell id="Ba5T1_cV8EzTChJs61SM-35" style="edgeStyle=orthogonalEdgeStyle;rounded=0;orthogonalLoop=1;jettySize=auto;html=1;exitX=0.5;exitY=1;exitDx=0;exitDy=0;" parent="1" source="Ba5T1_cV8EzTChJs61SM-10" target="Ba5T1_cV8EzTChJs61SM-24" edge="1">
          <mxGeometry relative="1" as="geometry" />
        </mxCell>
        <mxCell id="Ba5T1_cV8EzTChJs61SM-10" value="进入视频初检工作台" style="rounded=0;whiteSpace=wrap;html=1;" parent="1" vertex="1">
          <mxGeometry x="730" y="80" width="120" height="60" as="geometry" />
        </mxCell>
        <mxCell id="Ba5T1_cV8EzTChJs61SM-12" value="结束" style="strokeWidth=2;html=1;shape=mxgraph.flowchart.terminator;whiteSpace=wrap;fillColor=#ffcd28;gradientColor=#ffa500;strokeColor=#d79b00;" parent="1" vertex="1">
          <mxGeometry x="730" y="470" width="100" height="60" as="geometry" />
        </mxCell>
        <mxCell id="Ba5T1_cV8EzTChJs61SM-17" value="通过" style="edgeStyle=orthogonalEdgeStyle;rounded=0;orthogonalLoop=1;jettySize=auto;html=1;exitX=1;exitY=0.5;exitDx=0;exitDy=0;exitPerimeter=0;" parent="1" source="Ba5T1_cV8EzTChJs61SM-14" target="Ba5T1_cV8EzTChJs61SM-15" edge="1">
          <mxGeometry relative="1" as="geometry" />
        </mxCell>
        <mxCell id="Ba5T1_cV8EzTChJs61SM-22" value="否" style="edgeStyle=orthogonalEdgeStyle;rounded=0;orthogonalLoop=1;jettySize=auto;html=1;exitX=0.5;exitY=1;exitDx=0;exitDy=0;exitPerimeter=0;" parent="1" source="Ba5T1_cV8EzTChJs61SM-14" target="Ba5T1_cV8EzTChJs61SM-19" edge="1">
          <mxGeometry relative="1" as="geometry" />
        </mxCell>
        <mxCell id="Ba5T1_cV8EzTChJs61SM-14" value="质检通过" style="strokeWidth=2;html=1;shape=mxgraph.flowchart.decision;whiteSpace=wrap;fillColor=#d5e8d4;strokeColor=#82b366;" parent="1" vertex="1">
          <mxGeometry x="230" y="200" width="100" height="100" as="geometry" />
        </mxCell>
        <mxCell id="Ba5T1_cV8EzTChJs61SM-18" style="edgeStyle=orthogonalEdgeStyle;rounded=0;orthogonalLoop=1;jettySize=auto;html=1;exitX=1;exitY=0.5;exitDx=0;exitDy=0;entryX=0;entryY=0.5;entryDx=0;entryDy=0;" parent="1" source="Ba5T1_cV8EzTChJs61SM-15" target="Ba5T1_cV8EzTChJs61SM-16" edge="1">
          <mxGeometry relative="1" as="geometry" />
        </mxCell>
        <mxCell id="Ba5T1_cV8EzTChJs61SM-15" value="修改质检单的初检状态为初检通过" style="rounded=0;whiteSpace=wrap;html=1;" parent="1" vertex="1">
          <mxGeometry x="390" y="220" width="120" height="60" as="geometry" />
        </mxCell>
        <mxCell id="Ba5T1_cV8EzTChJs61SM-48" value="" style="edgeStyle=orthogonalEdgeStyle;rounded=0;orthogonalLoop=1;jettySize=auto;html=1;" parent="1" source="Ba5T1_cV8EzTChJs61SM-16" target="Ba5T1_cV8EzTChJs61SM-39" edge="1">
          <mxGeometry relative="1" as="geometry" />
        </mxCell>
        <mxCell id="Ba5T1_cV8EzTChJs61SM-16" value="修改质检单的复检状态为待复检,保存质检单到视频复检工作台" style="rounded=0;whiteSpace=wrap;html=1;" parent="1" vertex="1">
          <mxGeometry x="560" y="220" width="120" height="60" as="geometry" />
        </mxCell>
        <mxCell id="Ba5T1_cV8EzTChJs61SM-23" style="edgeStyle=orthogonalEdgeStyle;rounded=0;orthogonalLoop=1;jettySize=auto;html=1;exitX=1;exitY=0.5;exitDx=0;exitDy=0;entryX=0;entryY=0.5;entryDx=0;entryDy=0;" parent="1" source="Ba5T1_cV8EzTChJs61SM-19" target="Ba5T1_cV8EzTChJs61SM-21" edge="1">
          <mxGeometry relative="1" as="geometry" />
        </mxCell>
        <mxCell id="Ba5T1_cV8EzTChJs61SM-19" value="修改质检单的初检状态为初检不通过" style="rounded=0;whiteSpace=wrap;html=1;" parent="1" vertex="1">
          <mxGeometry x="220" y="340" width="120" height="60" as="geometry" />
        </mxCell>
        <mxCell id="Ba5T1_cV8EzTChJs61SM-37" style="edgeStyle=orthogonalEdgeStyle;rounded=0;orthogonalLoop=1;jettySize=auto;html=1;exitX=0.5;exitY=1;exitDx=0;exitDy=0;" parent="1" source="Ba5T1_cV8EzTChJs61SM-21" target="Ba5T1_cV8EzTChJs61SM-26" edge="1">
          <mxGeometry relative="1" as="geometry" />
        </mxCell>
        <mxCell id="Ba5T1_cV8EzTChJs61SM-21" value="填写扣款金额，确认状态为待确认，确认人为打标人" style="rounded=0;whiteSpace=wrap;html=1;" parent="1" vertex="1">
          <mxGeometry x="390" y="340" width="120" height="60" as="geometry" />
        </mxCell>
        <mxCell id="Ba5T1_cV8EzTChJs61SM-25" value="" style="edgeStyle=orthogonalEdgeStyle;rounded=0;orthogonalLoop=1;jettySize=auto;html=1;" parent="1" source="Ba5T1_cV8EzTChJs61SM-24" target="Ba5T1_cV8EzTChJs61SM-14" edge="1">
          <mxGeometry relative="1" as="geometry" />
        </mxCell>
        <mxCell id="Ba5T1_cV8EzTChJs61SM-24" value="质检流程" style="strokeWidth=2;html=1;shape=mxgraph.flowchart.start_2;whiteSpace=wrap;fillColor=#ffe6cc;strokeColor=#d79b00;" parent="1" vertex="1">
          <mxGeometry x="70" y="200" width="100" height="100" as="geometry" />
        </mxCell>
        <mxCell id="Ba5T1_cV8EzTChJs61SM-28" style="edgeStyle=orthogonalEdgeStyle;rounded=0;orthogonalLoop=1;jettySize=auto;html=1;exitX=1;exitY=0.5;exitDx=0;exitDy=0;exitPerimeter=0;" parent="1" source="Ba5T1_cV8EzTChJs61SM-26" target="Ba5T1_cV8EzTChJs61SM-27" edge="1">
          <mxGeometry relative="1" as="geometry" />
        </mxCell>
        <mxCell id="Ba5T1_cV8EzTChJs61SM-26" value="确认流程" style="strokeWidth=2;html=1;shape=mxgraph.flowchart.start_2;whiteSpace=wrap;fillColor=#ffe6cc;strokeColor=#d79b00;" parent="1" vertex="1">
          <mxGeometry x="70" y="450" width="100" height="100" as="geometry" />
        </mxCell>
        <mxCell id="Ba5T1_cV8EzTChJs61SM-32" style="edgeStyle=orthogonalEdgeStyle;rounded=0;orthogonalLoop=1;jettySize=auto;html=1;exitX=1;exitY=0.5;exitDx=0;exitDy=0;" parent="1" source="Ba5T1_cV8EzTChJs61SM-27" target="Ba5T1_cV8EzTChJs61SM-29" edge="1">
          <mxGeometry relative="1" as="geometry" />
        </mxCell>
        <mxCell id="Ba5T1_cV8EzTChJs61SM-27" value="检查确认人是否为当前用户" style="rounded=0;whiteSpace=wrap;html=1;" parent="1" vertex="1">
          <mxGeometry x="220" y="470" width="120" height="60" as="geometry" />
        </mxCell>
        <mxCell id="Ba5T1_cV8EzTChJs61SM-33" value="是" style="edgeStyle=orthogonalEdgeStyle;rounded=0;orthogonalLoop=1;jettySize=auto;html=1;exitX=1;exitY=0.5;exitDx=0;exitDy=0;exitPerimeter=0;entryX=0;entryY=0.5;entryDx=0;entryDy=0;" parent="1" source="Ba5T1_cV8EzTChJs61SM-29" target="Ba5T1_cV8EzTChJs61SM-30" edge="1">
          <mxGeometry relative="1" as="geometry" />
        </mxCell>
        <mxCell id="Ba5T1_cV8EzTChJs61SM-34" value="否" style="edgeStyle=orthogonalEdgeStyle;rounded=0;orthogonalLoop=1;jettySize=auto;html=1;exitX=0.5;exitY=1;exitDx=0;exitDy=0;exitPerimeter=0;entryX=0.5;entryY=0;entryDx=0;entryDy=0;" parent="1" source="Ba5T1_cV8EzTChJs61SM-29" target="Ba5T1_cV8EzTChJs61SM-31" edge="1">
          <mxGeometry relative="1" as="geometry" />
        </mxCell>
        <mxCell id="Ba5T1_cV8EzTChJs61SM-29" value="确认" style="strokeWidth=2;html=1;shape=mxgraph.flowchart.decision;whiteSpace=wrap;fillColor=#d5e8d4;strokeColor=#82b366;" parent="1" vertex="1">
          <mxGeometry x="390" y="450" width="100" height="100" as="geometry" />
        </mxCell>
        <mxCell id="MDcC3N-NDi3baoKLHMXW-3" style="edgeStyle=orthogonalEdgeStyle;rounded=0;orthogonalLoop=1;jettySize=auto;html=1;exitX=1;exitY=0.5;exitDx=0;exitDy=0;" edge="1" parent="1" source="Ba5T1_cV8EzTChJs61SM-30">
          <mxGeometry relative="1" as="geometry">
            <mxPoint x="710" y="250" as="targetPoint" />
          </mxGeometry>
        </mxCell>
        <mxCell id="Ba5T1_cV8EzTChJs61SM-30" value="修改质检单确认状态为认可，修改原标注单为质检完成" style="rounded=0;whiteSpace=wrap;html=1;" parent="1" vertex="1">
          <mxGeometry x="560" y="470" width="120" height="60" as="geometry" />
        </mxCell>
        <mxCell id="Ba5T1_cV8EzTChJs61SM-54" style="edgeStyle=orthogonalEdgeStyle;rounded=0;orthogonalLoop=1;jettySize=auto;html=1;entryX=0.44;entryY=0.01;entryDx=0;entryDy=0;entryPerimeter=0;" parent="1" source="Ba5T1_cV8EzTChJs61SM-31" target="Ba5T1_cV8EzTChJs61SM-52" edge="1">
          <mxGeometry relative="1" as="geometry" />
        </mxCell>
        <mxCell id="Ba5T1_cV8EzTChJs61SM-31" value="修改质检单确认状态为不认可，修改质检单确认状态为不认可，复议状态为待复议" style="rounded=0;whiteSpace=wrap;html=1;" parent="1" vertex="1">
          <mxGeometry x="380" y="590" width="120" height="60" as="geometry" />
        </mxCell>
        <mxCell id="Ba5T1_cV8EzTChJs61SM-41" style="edgeStyle=orthogonalEdgeStyle;rounded=0;orthogonalLoop=1;jettySize=auto;html=1;exitX=1;exitY=0.5;exitDx=0;exitDy=0;exitPerimeter=0;entryX=0;entryY=0.5;entryDx=0;entryDy=0;" parent="1" source="Ba5T1_cV8EzTChJs61SM-39" target="Ba5T1_cV8EzTChJs61SM-40" edge="1">
          <mxGeometry relative="1" as="geometry" />
        </mxCell>
        <mxCell id="Ba5T1_cV8EzTChJs61SM-39" value="复检流程" style="strokeWidth=2;html=1;shape=mxgraph.flowchart.start_2;whiteSpace=wrap;fillColor=#ffe6cc;strokeColor=#d79b00;" parent="1" vertex="1">
          <mxGeometry x="740" y="200" width="100" height="100" as="geometry" />
        </mxCell>
        <mxCell id="Ba5T1_cV8EzTChJs61SM-47" style="edgeStyle=orthogonalEdgeStyle;rounded=0;orthogonalLoop=1;jettySize=auto;html=1;exitX=0.5;exitY=1;exitDx=0;exitDy=0;" parent="1" source="Ba5T1_cV8EzTChJs61SM-40" target="Ba5T1_cV8EzTChJs61SM-42" edge="1">
          <mxGeometry relative="1" as="geometry" />
        </mxCell>
        <mxCell id="Ba5T1_cV8EzTChJs61SM-40" value="修改质检单复检状态为复检中，复检人为当前登录用户" style="rounded=0;whiteSpace=wrap;html=1;" parent="1" vertex="1">
          <mxGeometry x="880" y="220" width="120" height="60" as="geometry" />
        </mxCell>
        <mxCell id="Ba5T1_cV8EzTChJs61SM-45" value="不通过" style="edgeStyle=orthogonalEdgeStyle;rounded=0;orthogonalLoop=1;jettySize=auto;html=1;exitX=0;exitY=0.5;exitDx=0;exitDy=0;exitPerimeter=0;entryX=1;entryY=0.5;entryDx=0;entryDy=0;" parent="1" source="Ba5T1_cV8EzTChJs61SM-42" target="Ba5T1_cV8EzTChJs61SM-43" edge="1">
          <mxGeometry relative="1" as="geometry" />
        </mxCell>
        <mxCell id="Ba5T1_cV8EzTChJs61SM-46" value="通过" style="edgeStyle=orthogonalEdgeStyle;rounded=0;orthogonalLoop=1;jettySize=auto;html=1;exitX=0.5;exitY=1;exitDx=0;exitDy=0;exitPerimeter=0;entryX=0.5;entryY=0;entryDx=0;entryDy=0;" parent="1" source="Ba5T1_cV8EzTChJs61SM-42" target="Ba5T1_cV8EzTChJs61SM-44" edge="1">
          <mxGeometry relative="1" as="geometry" />
        </mxCell>
        <mxCell id="Ba5T1_cV8EzTChJs61SM-42" value="复检通过" style="strokeWidth=2;html=1;shape=mxgraph.flowchart.decision;whiteSpace=wrap;fillColor=#d5e8d4;strokeColor=#82b366;" parent="1" vertex="1">
          <mxGeometry x="890" y="320" width="100" height="100" as="geometry" />
        </mxCell>
        <mxCell id="Ba5T1_cV8EzTChJs61SM-49" style="edgeStyle=orthogonalEdgeStyle;rounded=0;orthogonalLoop=1;jettySize=auto;html=1;exitX=0.5;exitY=1;exitDx=0;exitDy=0;" parent="1" source="Ba5T1_cV8EzTChJs61SM-43" target="Ba5T1_cV8EzTChJs61SM-12" edge="1">
          <mxGeometry relative="1" as="geometry" />
        </mxCell>
        <mxCell id="Ba5T1_cV8EzTChJs61SM-43" value="修改质检单确认状态为复检不通过，修改原标注单质检状态为已完成" style="rounded=0;whiteSpace=wrap;html=1;" parent="1" vertex="1">
          <mxGeometry x="720" y="340" width="120" height="60" as="geometry" />
        </mxCell>
        <mxCell id="Ba5T1_cV8EzTChJs61SM-51" value="" style="edgeStyle=orthogonalEdgeStyle;rounded=0;orthogonalLoop=1;jettySize=auto;html=1;" parent="1" source="Ba5T1_cV8EzTChJs61SM-44" target="Ba5T1_cV8EzTChJs61SM-12" edge="1">
          <mxGeometry relative="1" as="geometry" />
        </mxCell>
        <mxCell id="Ba5T1_cV8EzTChJs61SM-44" value="修改质检单确认状态为复检不通过，修改原标注单质检状态为已完成" style="rounded=0;whiteSpace=wrap;html=1;" parent="1" vertex="1">
          <mxGeometry x="880" y="470" width="120" height="60" as="geometry" />
        </mxCell>
        <mxCell id="Ba5T1_cV8EzTChJs61SM-61" value="" style="edgeStyle=orthogonalEdgeStyle;rounded=0;orthogonalLoop=1;jettySize=auto;html=1;" parent="1" source="Ba5T1_cV8EzTChJs61SM-52" target="Ba5T1_cV8EzTChJs61SM-56" edge="1">
          <mxGeometry relative="1" as="geometry" />
        </mxCell>
        <mxCell id="Ba5T1_cV8EzTChJs61SM-52" value="复议流程" style="strokeWidth=2;html=1;shape=mxgraph.flowchart.start_2;whiteSpace=wrap;fillColor=#ffe6cc;strokeColor=#d79b00;" parent="1" vertex="1">
          <mxGeometry x="80" y="660" width="100" height="100" as="geometry" />
        </mxCell>
        <mxCell id="Ba5T1_cV8EzTChJs61SM-62" style="edgeStyle=orthogonalEdgeStyle;rounded=0;orthogonalLoop=1;jettySize=auto;html=1;exitX=0.5;exitY=1;exitDx=0;exitDy=0;exitPerimeter=0;entryX=0;entryY=0.5;entryDx=0;entryDy=0;" parent="1" source="Ba5T1_cV8EzTChJs61SM-56" target="Ba5T1_cV8EzTChJs61SM-60" edge="1">
          <mxGeometry relative="1" as="geometry" />
        </mxCell>
        <mxCell id="Ba5T1_cV8EzTChJs61SM-63" value="通过" style="edgeLabel;html=1;align=center;verticalAlign=middle;resizable=0;points=[];" parent="Ba5T1_cV8EzTChJs61SM-62" vertex="1" connectable="0">
          <mxGeometry x="-0.0154" y="3" relative="1" as="geometry">
            <mxPoint as="offset" />
          </mxGeometry>
        </mxCell>
        <mxCell id="Ba5T1_cV8EzTChJs61SM-64" value="f否" style="edgeStyle=orthogonalEdgeStyle;rounded=0;orthogonalLoop=1;jettySize=auto;html=1;entryX=0;entryY=0.5;entryDx=0;entryDy=0;" parent="1" source="Ba5T1_cV8EzTChJs61SM-56" target="Ba5T1_cV8EzTChJs61SM-57" edge="1">
          <mxGeometry relative="1" as="geometry" />
        </mxCell>
        <mxCell id="Ba5T1_cV8EzTChJs61SM-56" value="复议通过" style="strokeWidth=2;html=1;shape=mxgraph.flowchart.decision;whiteSpace=wrap;fillColor=#d5e8d4;strokeColor=#82b366;" parent="1" vertex="1">
          <mxGeometry x="240" y="660" width="100" height="100" as="geometry" />
        </mxCell>
        <mxCell id="Ba5T1_cV8EzTChJs61SM-66" value="" style="edgeStyle=orthogonalEdgeStyle;rounded=0;orthogonalLoop=1;jettySize=auto;html=1;" parent="1" source="Ba5T1_cV8EzTChJs61SM-57" target="Ba5T1_cV8EzTChJs61SM-59" edge="1">
          <mxGeometry relative="1" as="geometry" />
        </mxCell>
        <mxCell id="Ba5T1_cV8EzTChJs61SM-57" value="修改质检单复议状态为复检不通过" style="rounded=0;whiteSpace=wrap;html=1;" parent="1" vertex="1">
          <mxGeometry x="380" y="680" width="120" height="60" as="geometry" />
        </mxCell>
        <mxCell id="Ba5T1_cV8EzTChJs61SM-67" style="edgeStyle=orthogonalEdgeStyle;rounded=0;orthogonalLoop=1;jettySize=auto;html=1;exitX=1;exitY=0.5;exitDx=0;exitDy=0;" parent="1" source="Ba5T1_cV8EzTChJs61SM-59" edge="1">
          <mxGeometry relative="1" as="geometry">
            <mxPoint x="780" y="540" as="targetPoint" />
          </mxGeometry>
        </mxCell>
        <mxCell id="Ba5T1_cV8EzTChJs61SM-59" value="修改原标注单质检状态为已完成" style="rounded=0;whiteSpace=wrap;html=1;" parent="1" vertex="1">
          <mxGeometry x="560" y="680" width="120" height="60" as="geometry" />
        </mxCell>
        <mxCell id="Ba5T1_cV8EzTChJs61SM-69" value="" style="edgeStyle=orthogonalEdgeStyle;rounded=0;orthogonalLoop=1;jettySize=auto;html=1;" parent="1" source="Ba5T1_cV8EzTChJs61SM-60" target="Ba5T1_cV8EzTChJs61SM-68" edge="1">
          <mxGeometry relative="1" as="geometry" />
        </mxCell>
        <mxCell id="Ba5T1_cV8EzTChJs61SM-60" value="修改质检单确认状态为复议通过" style="rounded=0;whiteSpace=wrap;html=1;" parent="1" vertex="1">
          <mxGeometry x="380" y="770" width="120" height="60" as="geometry" />
        </mxCell>
        <mxCell id="Ba5T1_cV8EzTChJs61SM-70" value="" style="edgeStyle=orthogonalEdgeStyle;rounded=0;orthogonalLoop=1;jettySize=auto;html=1;" parent="1" source="Ba5T1_cV8EzTChJs61SM-68" target="Ba5T1_cV8EzTChJs61SM-59" edge="1">
          <mxGeometry relative="1" as="geometry" />
        </mxCell>
        <mxCell id="Ba5T1_cV8EzTChJs61SM-68" value="扣款金额清0" style="rounded=0;whiteSpace=wrap;html=1;" parent="1" vertex="1">
          <mxGeometry x="560" y="770" width="120" height="60" as="geometry" />
        </mxCell>
      </root>
    </mxGraphModel>
  </diagram>
</mxfile>
